<svg width="68" height="33" viewBox="0 0 68 33" fill="none" xmlns="http://www.w3.org/2000/svg">
<path d="M4.34 4.232H12.44V14.096H20.108V4.232H28.244V29H20.108V19.28H12.44V29H4.34V4.232ZM35.802 4.232H43.29L49.482 16.256L55.53 4.232H63.018V29H55.53V15.788L50.958 24.428H47.898L43.29 15.788V29H35.802V4.232Z" fill="white"/>
<path d="M4.34 4.232V0.231999H0.34V4.232H4.34ZM12.44 4.232H16.44V0.231999H12.44V4.232ZM12.44 14.096H8.44V18.096H12.44V14.096ZM20.108 14.096V18.096H24.108V14.096H20.108ZM20.108 4.232V0.231999H16.108V4.232H20.108ZM28.244 4.232H32.244V0.231999H28.244V4.232ZM28.244 29V33H32.244V29H28.244ZM20.108 29H16.108V33H20.108V29ZM20.108 19.28H24.108V15.28H20.108V19.28ZM12.44 19.28V15.28H8.44V19.28H12.44ZM12.44 29V33H16.44V29H12.44ZM4.34 29H0.34V33H4.34V29ZM4.34 8.232H12.44V0.231999H4.34V8.232ZM8.44 4.232V14.096H16.44V4.232H8.44ZM12.44 18.096H20.108V10.096H12.44V18.096ZM24.108 14.096V4.232H16.108V14.096H24.108ZM20.108 8.232H28.244V0.231999H20.108V8.232ZM24.244 4.232V29H32.244V4.232H24.244ZM28.244 25H20.108V33H28.244V25ZM24.108 29V19.28H16.108V29H24.108ZM20.108 15.28H12.44V23.28H20.108V15.28ZM8.44 19.28V29H16.44V19.28H8.44ZM12.44 25H4.34V33H12.44V25ZM8.34 29V4.232H0.34V29H8.34ZM35.802 4.232V0.231999H31.802V4.232H35.802ZM43.29 4.232L46.8462 2.40068L45.7294 0.231999H43.29V4.232ZM49.482 16.256L45.9259 18.0873L49.524 25.0743L53.0555 18.0534L49.482 16.256ZM55.53 4.232V0.231999H53.0645L51.9566 2.43459L55.53 4.232ZM63.018 4.232H67.018V0.231999H63.018V4.232ZM63.018 29V33H67.018V29H63.018ZM55.53 29H51.53V33H55.53V29ZM55.53 15.788H59.53L51.9945 13.9171L55.53 15.788ZM50.958 24.428V28.428H53.3669L54.4935 26.2989L50.958 24.428ZM47.898 24.428L44.3686 26.3104L45.498 28.428H47.898V24.428ZM43.29 15.788L46.8194 13.9056L39.29 15.788H43.29ZM43.29 29V33H47.29V29H43.29ZM35.802 29H31.802V33H35.802V29ZM35.802 8.232H43.29V0.231999H35.802V8.232ZM39.7339 6.06332L45.9259 18.0873L53.0382 14.4247L46.8462 2.40068L39.7339 6.06332ZM53.0555 18.0534L59.1035 6.02941L51.9566 2.43459L45.9086 14.4586L53.0555 18.0534ZM55.53 8.232H63.018V0.231999H55.53V8.232ZM59.018 4.232V29H67.018V4.232H59.018ZM63.018 25H55.53V33H63.018V25ZM59.53 29V15.788H51.53V29H59.53ZM51.9945 13.9171L47.4225 22.5571L54.4935 26.2989L59.0655 17.6589L51.9945 13.9171ZM50.958 20.428H47.898V28.428H50.958V20.428ZM51.4274 22.5456L46.8194 13.9056L39.7606 17.6704L44.3686 26.3104L51.4274 22.5456ZM39.29 15.788V29H47.29V15.788H39.29ZM43.29 25H35.802V33H43.29V25ZM39.802 29V4.232H31.802V29H39.802Z" fill="#1976D2"/>
</svg>
