<svg viewBox="0 0 121 61" fill="none"
  xmlns="http://www.w3.org/2000/svg">
  <path d="M8.15997 4.968H4.15997V8.968V53V57H8.15997H22.56H26.56V53V39.72H32.192V53V57H36.192H50.656H54.656V53V8.968V4.968H50.656H36.192H32.192V8.968V22.504H26.56V8.968V4.968H22.56H8.15997ZM64.0925 4.968H60.0925V8.968V53V57H64.0925H77.4045H81.4045V53V45.512L82.0671 46.7544L83.1965 48.872H85.5965H91.0365H93.4453L94.572 46.7429L95.1645 45.6232V53V57H99.1645H112.476H116.476V53V8.968V4.968H112.476H99.1645H96.6989L95.5911 7.17059L88.3705 21.5257L80.9606 7.13669L79.8438 4.968H77.4045H64.0925Z" fill="white" stroke="#1976D2" stroke-width="8"/>
</svg>
