<svg width="34" height="34" viewBox="0 0 34 34" fill="none" xmlns="http://www.w3.org/2000/svg">
<g id="cancel_24px">
<path id="icon/navigation/cancel_24px" fill-rule="evenodd" clip-rule="evenodd" d="M2.8335 17C2.8335 9.16587 9.166 2.83337 17.0002 2.83337C24.8343 2.83337 31.1668 9.16587 31.1668 17C31.1668 24.8342 24.8343 31.1667 17.0002 31.1667C9.166 31.1667 2.8335 24.8342 2.8335 17ZM21.0943 23.0917C21.6468 23.6442 22.5393 23.6442 23.0918 23.0917C23.6301 22.5392 23.6301 21.6325 23.0918 21.0942L18.9976 17L23.0918 12.9059C23.6443 12.3534 23.6443 11.4609 23.0918 10.9084C22.5393 10.3559 21.6468 10.3559 21.0943 10.9084L17.0001 15.0025L12.906 10.9084C12.3535 10.3559 11.461 10.3559 10.9085 10.9084C10.6432 11.173 10.4941 11.5324 10.4941 11.9071C10.4941 12.2818 10.6432 12.6412 10.9085 12.9059L15.0026 17L10.9085 21.0942C10.6432 21.3589 10.4941 21.7182 10.4941 22.0929C10.4941 22.4677 10.6432 22.827 10.9085 23.0917C11.461 23.6442 12.3535 23.6442 12.906 23.0917L17.0001 18.9975L21.0943 23.0917Z" fill="#6A6E88"/>
</g>
</svg>
