<svg width="38" height="37" viewBox="0 0 38 37" fill="none" xmlns="http://www.w3.org/2000/svg">
<rect x="5.55048" y="5" width="27.4495" height="26.6422" rx="13.3211" fill="white"/>
<rect x="3.05048" y="2.5" width="32.4495" height="31.6422" rx="15.8211" stroke="#005DB2" stroke-opacity="0.3" stroke-width="5"/>
<path d="M26.0221 16.9503C25.3157 12.9472 21.3127 9.92814 16.7727 9.91132C16.3112 9.91132 15.8591 9.93655 15.4164 9.99541C14.9454 10.0543 14.8512 10.6093 15.2845 10.8028C18.3739 12.1735 20.4932 15.0245 20.4932 18.3211C20.4932 21.6177 18.3739 24.4687 15.2845 25.8479C14.8607 26.0413 14.9454 26.5963 15.4164 26.6552C15.8591 26.7057 16.3112 26.7309 16.7727 26.7309C21.3127 26.7141 25.3157 23.695 26.0221 19.6919C26.1069 19.2294 26.1257 18.7752 26.1257 18.3211C26.1257 17.867 26.1069 17.4128 26.0221 16.9503Z" fill="#FFB800"/>
</svg>
