<svg width="36" height="36" viewBox="0 0 36 36" fill="none" xmlns="http://www.w3.org/2000/svg">
<g id="download_24px">
<path id="icon/file/download_24px" fill-rule="evenodd" clip-rule="evenodd" d="M22.5 14.25H24.885C26.22 14.25 26.88 15.87 25.935 16.815L19.05 23.7C18.465 24.285 17.52 24.285 16.935 23.7L10.05 16.815C9.10501 15.87 9.78001 14.25 11.115 14.25H13.5V6.75C13.5 5.925 14.175 5.25 15 5.25H21C21.825 5.25 22.5 5.925 22.5 6.75V14.25ZM9 30.75C8.175 30.75 7.5 30.075 7.5 29.25C7.5 28.425 8.175 27.75 9 27.75H27C27.825 27.75 28.5 28.425 28.5 29.25C28.5 30.075 27.825 30.75 27 30.75H9Z" fill="#757A97"/>
</g>
</svg>
