<svg width="35" height="35" viewBox="0 0 35 35" fill="none" xmlns="http://www.w3.org/2000/svg">
<g opacity="0.87">
<path d="M17.5001 0C7.83635 0 0 8.03319 0 17.9431C0 25.8708 5.01432 32.5966 11.9677 34.9692C12.8423 35.1353 13.1634 34.5799 13.1634 34.106C13.1634 33.6781 13.1471 32.2647 13.1396 30.7654C8.27104 31.8508 7.24372 28.6483 7.24372 28.6483C6.44765 26.5744 5.30064 26.0229 5.30064 26.0229C3.71285 24.9093 5.42033 24.9321 5.42033 24.9321C7.17764 25.0587 8.10296 26.7812 8.10296 26.7812C9.6638 29.5243 12.1969 28.7312 13.1955 28.2728C13.3526 27.1131 13.8061 26.3215 14.3066 25.8734C10.4196 25.4197 6.33347 23.8812 6.33347 17.0059C6.33347 15.0469 7.0171 13.4463 8.13658 12.1897C7.95487 11.7378 7.35587 9.91283 8.30611 7.44131C8.30611 7.44131 9.77566 6.95907 13.1199 9.28054C14.5158 8.88298 16.0129 8.68361 17.5001 8.67677C18.9874 8.68361 20.4856 8.88298 21.8842 9.28054C25.2243 6.95907 26.6919 7.44131 26.6919 7.44131C27.6444 9.91283 27.0451 11.7378 26.8634 12.1897C27.9855 13.4463 28.6645 15.0469 28.6645 17.0059C28.6645 23.8975 24.5706 25.415 20.6737 25.8592C21.3014 26.416 21.8607 27.5079 21.8607 29.182C21.8607 31.5828 21.8404 33.515 21.8404 34.106C21.8404 34.5835 22.1554 35.143 23.0425 34.9668C29.9921 32.5915 35 25.8681 35 17.9431C35 8.03319 27.1648 0 17.5001 0Z" fill="#161514"/>
<path d="M6.67978 25.6392C6.64131 25.7275 6.50478 25.7539 6.3804 25.6933C6.25371 25.6354 6.18255 25.5151 6.22362 25.4265C6.26123 25.3356 6.39804 25.3103 6.52445 25.3712C6.65143 25.4291 6.72375 25.5507 6.67978 25.6392Z" fill="#161514"/>
<path d="M7.38729 26.4418C7.30398 26.5203 7.14113 26.4838 7.03064 26.3597C6.91638 26.2358 6.89497 26.0702 6.97944 25.9905C7.06535 25.9119 7.22328 25.9487 7.33783 26.0726C7.45208 26.1979 7.47435 26.3623 7.38729 26.4418Z" fill="#161514"/>
<path d="M8.07602 27.4649C7.969 27.5406 7.794 27.4696 7.68582 27.3117C7.57879 27.1537 7.57879 26.9642 7.68813 26.8883C7.7966 26.8124 7.969 26.8807 8.07863 27.0375C8.18536 27.1981 8.18536 27.3876 8.07602 27.4649Z" fill="#161514"/>
<path d="M9.0196 28.4535C8.92385 28.5609 8.71993 28.532 8.57067 28.3855C8.41794 28.2423 8.37542 28.039 8.47146 27.9316C8.56836 27.8239 8.77344 27.8542 8.92385 27.9995C9.07542 28.1425 9.1217 28.3473 9.0196 28.4535Z" fill="#161514"/>
<path d="M10.3212 29.0274C10.279 29.1666 10.0826 29.2298 9.88476 29.1707C9.68719 29.1098 9.5579 28.9468 9.59781 28.8062C9.63889 28.6662 9.83616 28.6003 10.0355 28.6635C10.2327 28.7241 10.3623 28.8859 10.3212 29.0274Z" fill="#161514"/>
<path d="M11.7507 29.134C11.7557 29.2805 11.5879 29.402 11.3802 29.4047C11.1714 29.4094 11.0024 29.2908 11.0001 29.1466C11.0001 28.9987 11.1641 28.8783 11.373 28.8748C11.5807 28.8707 11.7507 28.9884 11.7507 29.134Z" fill="#161514"/>
<path d="M13.0811 28.9036C13.1059 29.0466 12.9616 29.1934 12.7554 29.2326C12.5526 29.2702 12.3649 29.1819 12.3391 29.0401C12.3139 28.8936 12.4609 28.7468 12.6634 28.7089C12.8699 28.6724 13.0547 28.7583 13.0811 28.9036Z" fill="#161514"/>
</g>
</svg>
