<svg width="35" height="35" viewBox="0 0 35 35" fill="none" xmlns="http://www.w3.org/2000/svg">
<g opacity="0.87">
<path d="M17.5001 0C7.83635 0 0 8.03319 0 17.9431C0 25.8708 5.01432 32.5966 11.9677 34.9692C12.8423 35.1353 13.1634 34.5799 13.1634 34.106C13.1634 33.6781 13.1471 32.2647 13.1396 30.7654C8.27104 31.8508 7.24372 28.6483 7.24372 28.6483C6.44765 26.5744 5.30064 26.0229 5.30064 26.0229C3.71285 24.9093 5.42033 24.9321 5.42033 24.9321C7.17764 25.0587 8.10296 26.7812 8.10296 26.7812C9.6638 29.5243 12.1969 28.7312 13.1955 28.2728C13.3526 27.1131 13.8061 26.3215 14.3066 25.8734C10.4196 25.4197 6.33347 23.8812 6.33347 17.0059C6.33347 15.0469 7.0171 13.4463 8.13658 12.1897C7.95487 11.7378 7.35587 9.91283 8.30611 7.44131C8.30611 7.44131 9.77566 6.95907 13.1199 9.28054C14.5158 8.88298 16.0129 8.68361 17.5001 8.67677C18.9874 8.68361 20.4856 8.88298 21.8842 9.28054C25.2243 6.95907 26.6919 7.44131 26.6919 7.44131C27.6444 9.91283 27.0451 11.7378 26.8634 12.1897C27.9855 13.4463 28.6645 15.0469 28.6645 17.0059C28.6645 23.8975 24.5706 25.415 20.6737 25.8592C21.3014 26.416 21.8607 27.5079 21.8607 29.182C21.8607 31.5828 21.8404 33.515 21.8404 34.106C21.8404 34.5835 22.1554 35.143 23.0425 34.9668C29.9921 32.5915 35 25.8681 35 17.9431C35 8.03319 27.1648 0 17.5001 0Z" fill="white"/>
<path d="M6.67972 25.6392C6.64125 25.7274 6.50472 25.7539 6.38034 25.6933C6.25364 25.6353 6.18249 25.515 6.22356 25.4265C6.26117 25.3356 6.39798 25.3103 6.52439 25.3712C6.65137 25.4291 6.72369 25.5506 6.67972 25.6392Z" fill="white"/>
<path d="M7.38747 26.4417C7.30417 26.5203 7.14131 26.4838 7.03082 26.3597C6.91656 26.2358 6.89516 26.0702 6.97962 25.9904C7.06553 25.9119 7.22346 25.9487 7.33801 26.0725C7.45226 26.1979 7.47454 26.3623 7.38747 26.4417Z" fill="white"/>
<path d="M8.07615 27.465C7.96912 27.5406 7.79412 27.4697 7.68594 27.3117C7.57891 27.1537 7.57891 26.9642 7.68825 26.8883C7.79672 26.8124 7.96912 26.8807 8.07875 27.0375C8.18548 27.1981 8.18548 27.3876 8.07615 27.465Z" fill="white"/>
<path d="M9.01972 28.4535C8.92398 28.5609 8.72005 28.532 8.57079 28.3855C8.41807 28.2423 8.37555 28.039 8.47158 27.9316C8.56848 27.8239 8.77356 27.8542 8.92398 27.9995C9.07555 28.1425 9.12183 28.3473 9.01972 28.4535Z" fill="white"/>
<path d="M10.321 29.0275C10.2788 29.1666 10.0824 29.2299 9.88451 29.1707C9.68695 29.1098 9.55765 28.9469 9.59757 28.8062C9.63864 28.6662 9.83592 28.6003 10.0352 28.6635C10.2325 28.7242 10.3621 28.886 10.321 29.0275Z" fill="white"/>
<path d="M11.7506 29.134C11.7555 29.2805 11.5878 29.402 11.3801 29.4046C11.1712 29.4093 11.0023 29.2908 11 29.1466C11 28.9986 11.164 28.8783 11.3729 28.8748C11.5805 28.8707 11.7506 28.9883 11.7506 29.134Z" fill="white"/>
<path d="M13.0812 28.9036C13.1061 29.0466 12.9617 29.1934 12.7555 29.2326C12.5527 29.2702 12.365 29.1819 12.3392 29.0401C12.3141 28.8936 12.461 28.7468 12.6635 28.7089C12.87 28.6724 13.0549 28.7583 13.0812 28.9036Z" fill="white"/>
</g>
</svg>
