<svg width="38" height="37" viewBox="0 0 38 37" fill="none" xmlns="http://www.w3.org/2000/svg">
<rect x="5.55048" y="5" width="27.4495" height="26.6422" rx="13.3211" fill="white"/>
<rect x="3.05048" y="2.5" width="32.4495" height="31.6422" rx="15.8211" stroke="#005DB2" stroke-opacity="0.3" stroke-width="5"/>
<path fill-rule="evenodd" clip-rule="evenodd" d="M29.2593 18.9182L26.8104 21.1048V24.208C26.8104 24.6705 26.3865 25.0489 25.8685 25.0489H22.3835L19.9346 27.2355C19.5672 27.5635 18.9738 27.5635 18.6065 27.2355L16.1576 25.0489H12.682C12.1639 25.0489 11.7401 24.6705 11.7401 24.208V21.0963L9.29113 18.9098C8.92379 18.5818 8.92379 18.052 9.29113 17.724L11.7401 15.5375V12.4343C11.7401 11.9717 12.1639 11.5933 12.682 11.5933H16.1576L18.6159 9.40674C18.7919 9.24927 19.0308 9.16077 19.2799 9.16077C19.5291 9.16077 19.768 9.24927 19.944 9.40674L22.3929 11.5933H25.8685C26.3865 11.5933 26.8104 11.9717 26.8104 12.4343V15.5375L29.2593 17.7324C29.6267 18.0604 29.6267 18.5902 29.2593 18.9182ZM13.6239 18.3211C13.6239 21.1048 16.1576 23.367 19.2752 23.367C22.3929 23.367 24.9266 21.1048 24.9266 18.3211C24.9266 15.5375 22.3929 13.2752 19.2752 13.2752C16.1576 13.2752 13.6239 15.5375 13.6239 18.3211Z" fill="#FFB800"/>
</svg>
