<svg width="35" height="35" viewBox="0 0 35 35" fill="none" xmlns="http://www.w3.org/2000/svg">
<g opacity="0.87">
<path d="M0 17.5C0 7.83502 7.83502 0 17.5 0C27.165 0 35 7.83502 35 17.5C35 27.165 27.165 35 17.5 35C7.83502 35 0 27.165 0 17.5Z" fill="#0077B5"/>
<path fill-rule="evenodd" clip-rule="evenodd" d="M12.6281 10.8082C12.6281 11.9524 11.7669 12.8679 10.384 12.8679H10.3587C9.02725 12.8679 8.1665 11.9524 8.1665 10.8082C8.1665 9.63988 9.05347 8.75 10.4102 8.75C11.7669 8.75 12.6024 9.63988 12.6281 10.8082ZM12.3669 14.4943V26.4101H8.40102V14.4943H12.3669ZM26.6692 26.4101L26.6694 19.5779C26.6694 15.9179 24.7129 14.2145 22.1032 14.2145C19.9975 14.2145 19.0548 15.371 18.5285 16.1824V14.4946H14.5621C14.6144 15.6127 14.5621 26.4104 14.5621 26.4104H18.5285V19.7556C18.5285 19.3995 18.5542 19.0442 18.6591 18.7893C18.9457 18.0778 19.5983 17.3412 20.694 17.3412C22.1296 17.3412 22.7035 18.4339 22.7035 20.0351V26.4101H26.6692Z" fill="white"/>
</g>
</svg>
