<svg width="34" height="34" viewBox="0 0 34 34" fill="none" xmlns="http://www.w3.org/2000/svg">
<g id="menu_24px">
<path id="icon/navigation/menu_24px" fill-rule="evenodd" clip-rule="evenodd" d="M5.66667 11.3333C4.8875 11.3333 4.25 10.6958 4.25 9.91667C4.25 9.1375 4.8875 8.5 5.66667 8.5H28.3333C29.1125 8.5 29.75 9.1375 29.75 9.91667C29.75 10.6958 29.1125 11.3333 28.3333 11.3333H5.66667ZM5.66667 18.4167H28.3333C29.1125 18.4167 29.75 17.7792 29.75 17C29.75 16.2208 29.1125 15.5833 28.3333 15.5833H5.66667C4.8875 15.5833 4.25 16.2208 4.25 17C4.25 17.7792 4.8875 18.4167 5.66667 18.4167ZM5.66667 25.5H28.3333C29.1125 25.5 29.75 24.8625 29.75 24.0833C29.75 23.3042 29.1125 22.6667 28.3333 22.6667H5.66667C4.8875 22.6667 4.25 23.3042 4.25 24.0833C4.25 24.8625 4.8875 25.5 5.66667 25.5Z" fill="#757A97"/>
</g>
</svg>
