<svg width="27" height="37" viewBox="0 0 27 37" fill="none" xmlns="http://www.w3.org/2000/svg">
<g id="pan_tool_24px">
<path id="icon/action/pan_tool_24px" d="M19.9898 6.32116C19.2521 6.60757 18.7946 7.6108 18.9655 8.56721L19.995 14.3287C20.0527 14.6513 19.9024 14.9807 19.6536 15.0774C19.4047 15.174 19.1639 14.9964 19.1062 14.6738L17.4589 5.4554C17.288 4.49899 16.5546 3.95815 15.8168 4.24456C15.0791 4.53097 14.6216 5.53421 14.7925 6.49061L16.4397 15.709C16.4974 16.0316 16.3472 16.361 16.0983 16.4577C15.8494 16.5543 15.6086 16.3767 15.5509 16.054L13.6977 5.68339C13.5268 4.72698 12.7934 4.18615 12.0556 4.47256C11.3179 4.75897 10.8604 5.7622 11.0313 6.71861L12.8824 17.0777C12.9401 17.4004 12.7898 17.7298 12.5409 17.8264C12.2921 17.923 12.0512 17.7455 11.9936 17.4228L10.7602 10.5206C10.5893 9.56416 9.85581 9.02332 9.11809 9.30973C8.38036 9.59614 7.92281 10.5994 8.09372 11.5558L10.4431 24.7035L6.29731 23.4173C5.71385 23.2372 5.09243 23.5893 4.76051 24.285C4.34665 25.1604 4.52654 26.2735 5.17244 26.7497L12.6174 32.3495C13.4425 32.9779 14.4377 33.1214 15.3976 32.7488L21.886 30.2297C23.8503 29.4671 25.0727 26.7868 24.6176 24.2403L21.6319 7.53199C21.461 6.57559 20.7276 6.03475 19.9898 6.32116Z" fill="#CBCFFF"/>
</g>
</svg>
