<svg width="323" height="341" viewBox="0 0 323 341" fill="none" xmlns="http://www.w3.org/2000/svg">
<path fill-rule="evenodd" clip-rule="evenodd" d="M90 -70C90 -94.8528 69.8528 -115 45 -115C20.1472 -115 0 -94.8528 0 -70V164.927C0 189.78 20.1472 209.927 45 209.927C69.8528 209.927 90 189.78 90 164.927V-70ZM278 -112.073C302.853 -112.073 323 -91.9262 323 -67.0734V215.927C323 240.779 302.853 260.927 278 260.927C253.147 260.927 233 240.779 233 215.927V-67.0734C233 -91.9262 253.147 -112.073 278 -112.073ZM162 -112.073C186.853 -112.073 207 -91.9262 207 -67.0734L207 295.927C207 320.779 186.853 340.927 162 340.927C137.147 340.927 117 320.779 117 295.927L117 -67.0733C117 -91.9262 137.147 -112.073 162 -112.073Z" fill="#6116FF"/>
</svg>
