<svg width="139" height="76" viewBox="0 0 139 76" fill="none" xmlns="http://www.w3.org/2000/svg">
<g id="Group 1">
<path id="h" d="M67.6172 21.7109C69.5391 19.3516 72.0391 18.1719 75.1172 18.1719C80.4766 18.1719 83.1797 21.1953 83.2266 27.2422V44H78.8906V27.2188C78.875 25.3906 78.4531 24.0391 77.625 23.1641C76.8125 22.2891 75.5391 21.8516 73.8047 21.8516C72.3984 21.8516 71.1641 22.2266 70.1016 22.9766C69.0391 23.7266 68.2109 24.7109 67.6172 25.9297V44H63.2812V8H67.6172V21.7109Z" fill="black"/>
<path id="M" d="M83.3301 43.4062L91.6973 64.2891L100.064 43.4062H104.441V69H101.066V59.0332L101.383 48.2754L92.9805 69H90.3965L82.0117 48.3281L82.3457 59.0332V69H78.9707V43.4062H83.3301Z" fill="black"/>
<path id="ugo" d="M91.2031 52.1191C89.9375 53.6074 88.0801 54.3516 85.6309 54.3516C83.6035 54.3516 82.0566 53.7656 80.9902 52.5938C79.9355 51.4102 79.4023 49.6641 79.3906 47.3555V34.9805H82.6426V47.2676C82.6426 50.1504 83.8145 51.5918 86.1582 51.5918C88.6426 51.5918 90.2949 50.666 91.1152 48.8145V34.9805H94.3672V54H91.2734L91.2031 52.1191ZM98.5508 44.332C98.5508 41.3672 99.2363 39.0117 100.607 37.2656C101.979 35.5078 103.795 34.6289 106.057 34.6289C108.377 34.6289 110.188 35.4492 111.488 37.0898L111.646 34.9805H114.617V53.543C114.617 56.0039 113.885 57.9434 112.42 59.3613C110.967 60.7793 109.01 61.4883 106.549 61.4883C105.178 61.4883 103.836 61.1953 102.523 60.6094C101.211 60.0234 100.209 59.2207 99.5176 58.2012L101.205 56.25C102.6 57.9727 104.305 58.834 106.32 58.834C107.902 58.834 109.133 58.3887 110.012 57.498C110.902 56.6074 111.348 55.3535 111.348 53.7363V52.1016C110.047 53.6016 108.271 54.3516 106.021 54.3516C103.795 54.3516 101.99 53.4551 100.607 51.6621C99.2363 49.8691 98.5508 47.4258 98.5508 44.332ZM101.82 44.7012C101.82 46.8457 102.26 48.5332 103.139 49.7637C104.018 50.9824 105.248 51.5918 106.83 51.5918C108.881 51.5918 110.387 50.6602 111.348 48.7969V40.1133C110.352 38.2969 108.857 37.3887 106.865 37.3887C105.283 37.3887 104.047 38.0039 103.156 39.2344C102.266 40.4648 101.82 42.2871 101.82 44.7012ZM118.678 44.3145C118.678 42.4512 119.041 40.7754 119.768 39.2871C120.506 37.7988 121.525 36.6504 122.826 35.8418C124.139 35.0332 125.633 34.6289 127.309 34.6289C129.898 34.6289 131.99 35.5254 133.584 37.3184C135.189 39.1113 135.992 41.4961 135.992 44.4727V44.7012C135.992 46.5527 135.635 48.2168 134.92 49.6934C134.217 51.1582 133.203 52.3008 131.879 53.1211C130.566 53.9414 129.055 54.3516 127.344 54.3516C124.766 54.3516 122.674 53.4551 121.068 51.6621C119.475 49.8691 118.678 47.4961 118.678 44.543V44.3145ZM121.947 44.7012C121.947 46.8105 122.434 48.5039 123.406 49.7812C124.391 51.0586 125.703 51.6973 127.344 51.6973C128.996 51.6973 130.309 51.0527 131.281 49.7637C132.254 48.4629 132.74 46.6465 132.74 44.3145C132.74 42.2285 132.242 40.541 131.246 39.252C130.262 37.9512 128.949 37.3008 127.309 37.3008C125.703 37.3008 124.408 37.9395 123.424 39.2168C122.439 40.4941 121.947 42.3223 121.947 44.7012Z" fill="black"/>
<path id="eireles" d="M10.3535 69.3516C7.77539 69.3516 5.67773 68.5078 4.06055 66.8203C2.44336 65.1211 1.63477 62.8535 1.63477 60.0176V59.4199C1.63477 57.5332 1.99219 55.8516 2.70703 54.375C3.43359 52.8867 4.44141 51.7266 5.73047 50.8945C7.03125 50.0508 8.4375 49.6289 9.94922 49.6289C12.4219 49.6289 14.3438 50.4434 15.7148 52.0723C17.0859 53.7012 17.7715 56.0332 17.7715 59.0684V60.4219H4.88672C4.93359 62.2969 5.47852 63.8145 6.52148 64.9746C7.57617 66.123 8.91211 66.6973 10.5293 66.6973C11.6777 66.6973 12.6504 66.4629 13.4473 65.9941C14.2441 65.5254 14.9414 64.9043 15.5391 64.1309L17.5254 65.6777C15.9316 68.127 13.541 69.3516 10.3535 69.3516ZM9.94922 52.3008C8.63672 52.3008 7.53516 52.7812 6.64453 53.7422C5.75391 54.6914 5.20312 56.0273 4.99219 57.75H14.5195V57.5039C14.4258 55.8516 13.9805 54.5742 13.1836 53.6719C12.3867 52.7578 11.3086 52.3008 9.94922 52.3008ZM25.084 69H21.832V49.9805H25.084V69ZM21.5684 44.9355C21.5684 44.4082 21.7266 43.9629 22.043 43.5996C22.3711 43.2363 22.8516 43.0547 23.4844 43.0547C24.1172 43.0547 24.5977 43.2363 24.9258 43.5996C25.2539 43.9629 25.418 44.4082 25.418 44.9355C25.418 45.4629 25.2539 45.9023 24.9258 46.2539C24.5977 46.6055 24.1172 46.7812 23.4844 46.7812C22.8516 46.7812 22.3711 46.6055 22.043 46.2539C21.7266 45.9023 21.5684 45.4629 21.5684 44.9355ZM39.498 52.8984C39.0059 52.8164 38.4727 52.7754 37.8984 52.7754C35.7656 52.7754 34.3184 53.6836 33.5566 55.5V69H30.3047V49.9805H33.4688L33.5215 52.1777C34.5879 50.4785 36.0996 49.6289 38.0566 49.6289C38.6895 49.6289 39.1699 49.7109 39.498 49.875V52.8984ZM50.0449 69.3516C47.4668 69.3516 45.3691 68.5078 43.752 66.8203C42.1348 65.1211 41.3262 62.8535 41.3262 60.0176V59.4199C41.3262 57.5332 41.6836 55.8516 42.3984 54.375C43.125 52.8867 44.1328 51.7266 45.4219 50.8945C46.7227 50.0508 48.1289 49.6289 49.6406 49.6289C52.1133 49.6289 54.0352 50.4434 55.4062 52.0723C56.7773 53.7012 57.4629 56.0332 57.4629 59.0684V60.4219H44.5781C44.625 62.2969 45.1699 63.8145 46.2129 64.9746C47.2676 66.123 48.6035 66.6973 50.2207 66.6973C51.3691 66.6973 52.3418 66.4629 53.1387 65.9941C53.9355 65.5254 54.6328 64.9043 55.2305 64.1309L57.2168 65.6777C55.623 68.127 53.2324 69.3516 50.0449 69.3516ZM49.6406 52.3008C48.3281 52.3008 47.2266 52.7812 46.3359 53.7422C45.4453 54.6914 44.8945 56.0273 44.6836 57.75H54.2109V57.5039C54.1172 55.8516 53.6719 54.5742 52.875 53.6719C52.0781 52.7578 51 52.3008 49.6406 52.3008ZM64.7754 69H61.5234V42H64.7754V69ZM77.8887 69.3516C75.3105 69.3516 73.2129 68.5078 71.5957 66.8203C69.9785 65.1211 69.1699 62.8535 69.1699 60.0176V59.4199C69.1699 57.5332 69.5273 55.8516 70.2422 54.375C70.9688 52.8867 71.9766 51.7266 73.2656 50.8945C74.5664 50.0508 75.9727 49.6289 77.4844 49.6289C79.957 49.6289 81.8789 50.4434 83.25 52.0723C84.6211 53.7012 85.3066 56.0332 85.3066 59.0684V60.4219H72.4219C72.4688 62.2969 73.0137 63.8145 74.0566 64.9746C75.1113 66.123 76.4473 66.6973 78.0645 66.6973C79.2129 66.6973 80.1855 66.4629 80.9824 65.9941C81.7793 65.5254 82.4766 64.9043 83.0742 64.1309L85.0605 65.6777C83.4668 68.127 81.0762 69.3516 77.8887 69.3516ZM77.4844 52.3008C76.1719 52.3008 75.0703 52.7812 74.1797 53.7422C73.2891 54.6914 72.7383 56.0273 72.5273 57.75H82.0547V57.5039C81.9609 55.8516 81.5156 54.5742 80.7188 53.6719C79.9219 52.7578 78.8438 52.3008 77.4844 52.3008ZM100.16 63.9551C100.16 63.0762 99.8262 62.3965 99.1582 61.916C98.502 61.4238 97.3477 61.002 95.6953 60.6504C94.0547 60.2988 92.748 59.877 91.7754 59.3848C90.8145 58.8926 90.0996 58.3066 89.6309 57.627C89.1738 56.9473 88.9453 56.1387 88.9453 55.2012C88.9453 53.6426 89.6016 52.3242 90.9141 51.2461C92.2383 50.168 93.9258 49.6289 95.9766 49.6289C98.1328 49.6289 99.8789 50.1855 101.215 51.2988C102.562 52.4121 103.236 53.8359 103.236 55.5703H99.9668C99.9668 54.6797 99.5859 53.9121 98.8242 53.2676C98.0742 52.623 97.125 52.3008 95.9766 52.3008C94.793 52.3008 93.8672 52.5586 93.1992 53.0742C92.5312 53.5898 92.1973 54.2637 92.1973 55.0957C92.1973 55.8809 92.5078 56.4727 93.1289 56.8711C93.75 57.2695 94.8691 57.6504 96.4863 58.0137C98.1152 58.377 99.4336 58.8105 100.441 59.3145C101.449 59.8184 102.193 60.4277 102.674 61.1426C103.166 61.8457 103.412 62.707 103.412 63.7266C103.412 65.4258 102.732 66.791 101.373 67.8223C100.014 68.8418 98.25 69.3516 96.082 69.3516C94.5586 69.3516 93.2109 69.082 92.0391 68.543C90.8672 68.0039 89.9473 67.2539 89.2793 66.293C88.623 65.3203 88.2949 64.2715 88.2949 63.1465H91.5469C91.6055 64.2363 92.0391 65.1035 92.8477 65.748C93.668 66.3809 94.7461 66.6973 96.082 66.6973C97.3125 66.6973 98.2969 66.4512 99.0352 65.959C99.7852 65.4551 100.16 64.7871 100.16 63.9551Z" fill="black"/>
</g>
</svg>
